<?xml version="1.0" encoding="UTF-8"?>
<svg version="1.1" xmlns="http://www.w3.org/2000/svg" width="3817" height="1384">
<path d="M0 0 C4.91061839 0.0076792 9.82120892 -0.00219674 14.73182325 -0.00973 C23.3203187 -0.02051917 31.90875749 -0.02026475 40.49725548 -0.01258852 C53.26912025 -0.0012045 66.04093754 -0.00706125 78.81280202 -0.01621344 C101.62869009 -0.03198532 124.44455291 -0.03065153 147.26044337 -0.0219767 C167.22857789 -0.01442215 187.19670276 -0.01245869 207.16483895 -0.01604463 C208.5041295 -0.01627707 209.84342005 -0.01650854 211.18271059 -0.01673904 C216.56534132 -0.01767052 221.94797205 -0.01862652 227.33060277 -0.01961833 C242.37569941 -0.02236883 257.42079608 -0.02408102 272.46589295 -0.02497675 C273.15090955 -0.02501768 273.83592614 -0.02505862 274.54170082 -0.0251008 C296.35650429 -0.02632792 318.17130456 -0.0229517 339.98610703 -0.01642801 C341.04680231 -0.01611189 341.04680231 -0.01611189 342.12892577 -0.01578938 C353.61085543 -0.01235491 365.09278503 -0.00869635 376.57471461 -0.00501886 C422.10283087 0.00954752 467.63092065 0.00887445 513.15903679 -0.00571062 C524.63291817 -0.00937448 536.10679955 -0.01300775 547.58068101 -0.01642801 C548.28726237 -0.01663936 548.99384373 -0.0168507 549.72183665 -0.01706845 C571.51295683 -0.02354158 593.30407481 -0.02627896 615.09519593 -0.02497675 C616.12199818 -0.02491562 616.12199818 -0.02491562 617.16954392 -0.02485325 C632.19940594 -0.02391562 647.22926772 -0.02201432 662.2591295 -0.01924524 C667.63745923 -0.0182579 673.01578897 -0.01731865 678.39411871 -0.01639311 C679.73199213 -0.01616094 681.06986555 -0.01592475 682.40773897 -0.01568452 C703.0265533 -0.0119923 723.64535343 -0.01564183 744.26416604 -0.02348329 C766.95798642 -0.03207101 789.65177767 -0.02989545 812.34559443 -0.01364106 C825.03596153 -0.00485067 837.72626548 -0.00423042 850.4166309 -0.01557958 C858.90553124 -0.02233201 867.3943812 -0.01807459 875.88327411 -0.00506528 C880.71170659 0.0020346 885.54001412 0.00458791 890.36844244 -0.00628323 C914.0339679 -0.0556837 937.44483835 0.19787173 960.54233758 6.07290266 C961.56682 6.32781477 962.59130242 6.58272688 963.64682976 6.8453636 C1003.04582524 17.00775473 1034.30172551 38.10228517 1066.15098015 62.49355696 C1072.38879124 67.25870346 1078.7143178 71.88156681 1085.1001989 76.44546126 C1091.96906135 81.37512147 1098.67372422 86.51017472 1105.38218133 91.65493391 C1110.17016258 95.31841144 1114.98418955 98.92002943 1119.91733758 102.38540266 C1125.78393757 106.50649502 1131.47862898 110.83519521 1137.16733758 115.19790266 C1143.68260534 120.19387336 1150.2374259 125.1116878 1156.91733758 129.88540266 C1164.5255015 135.32248131 1171.96220504 140.96450605 1179.38218133 146.65493391 C1184.17016258 150.31841144 1188.98418955 153.92002943 1193.91733758 157.38540266 C1199.78393757 161.50649502 1205.47862898 165.83519521 1211.16733758 170.19790266 C1217.68260534 175.19387336 1224.2374259 180.1116878 1230.91733758 184.88540266 C1238.5255015 190.32248131 1245.96220504 195.96450605 1253.38218133 201.65493391 C1258.69417431 205.71935395 1264.0584206 209.67563988 1269.53159539 213.51894758 C1275.8776274 218.00708299 1282.01132992 222.77429071 1288.17905633 227.50259016 C1293.03499784 231.21636939 1297.91439054 234.8722927 1302.91733758 238.38540266 C1308.78401393 242.50638077 1314.47863473 246.83519962 1320.16733758 251.19790266 C1326.68260534 256.19387336 1333.2374259 261.1116878 1339.91733758 265.88540266 C1347.5255015 271.32248131 1354.96220504 276.96450605 1362.38218133 282.65493391 C1367.17016258 286.31841144 1371.98418955 289.92002943 1376.91733758 293.38540266 C1383.7170372 298.16196663 1390.28997813 303.22355203 1396.88242547 308.28066633 C1402.6395856 312.68448161 1408.45855935 316.98255027 1414.35483758 321.19790266 C1426.92759977 330.21632808 1438.75049431 339.66648315 1449.91733758 350.38540266 C1450.43038445 350.87121809 1450.94343133 351.35703352 1451.47202508 351.85757063 C1458.90512964 358.91571846 1465.42355384 366.39346531 1471.56723992 374.5953636 C1472.88852498 376.34720123 1474.23749537 378.07412622 1475.59311883 379.79946516 C1498.5679305 409.48915739 1513.19835705 446.40850079 1518.91733758 483.38540266 C1519.08411686 484.43708561 1519.25089615 485.48876856 1519.42272935 486.57232068 C1521.12124259 498.47773323 1521.20066811 510.23534815 1521.17803399 522.2448387 C1521.18105916 524.53365919 1521.18495047 526.82247868 1521.18962655 529.1112964 C1521.19986806 535.36442557 1521.19773456 541.61749715 1521.19344596 547.87063096 C1521.19122628 553.93353253 1521.1984005 559.996417 1521.20520621 566.05931392 C1521.22040498 579.9806546 1521.22215554 593.90197703 1521.21968319 607.82332428 C1521.21784686 618.57744571 1521.21961726 629.3315612 1521.22390763 640.0856819 C1521.22451004 641.63354371 1521.22511124 643.18140552 1521.22571123 644.72926733 C1521.22661854 647.06206709 1521.22752721 649.39486685 1521.22844358 651.72766661 C1521.23686693 673.40254603 1521.24121308 695.07742323 1521.23703686 716.75230406 C1521.23688049 717.56853088 1521.23672411 718.3847577 1521.236563 719.22571867 C1521.23575728 723.36219104 1521.2349115 727.49866342 1521.23404969 731.63513578 C1521.23387861 732.45657591 1521.23370752 733.27801604 1521.23353125 734.1243483 C1521.23318459 735.78549762 1521.23283606 737.44664694 1521.23248566 739.10779626 C1521.2271296 764.94985695 1521.23505815 790.7918835 1521.25351922 816.63393782 C1521.27426152 845.70298566 1521.28495769 874.77201236 1521.28094373 903.84106801 C1521.28054842 906.94399879 1521.28018686 910.04692958 1521.27984635 913.14986037 C1521.27971025 914.29579444 1521.27971025 914.29579444 1521.27957141 915.4648787 C1521.27840824 926.96863091 1521.28503231 938.47236168 1521.29565827 949.97610853 C1521.30773928 963.06802792 1521.30923592 976.15990027 1521.2968681 989.2518204 C1521.29084456 995.92567189 1521.2898487 1002.59942029 1521.3018705 1009.27327154 C1521.3127669 1015.39370369 1521.30958135 1021.5139678 1521.29560882 1027.63439221 C1521.29297222 1029.8374853 1521.29529544 1032.04059171 1521.30334468 1034.24367167 C1521.36238229 1051.62131104 1520.03758018 1068.60454802 1515.22983758 1085.38540266 C1514.97565056 1086.28927717 1514.72146355 1087.19315169 1514.4595739 1088.12441633 C1500.62669887 1135.67621813 1468.34803687 1177.27937701 1425.10483758 1201.63540266 C1393.71638445 1218.7133031 1360.92013373 1226.04871321 1325.32308404 1225.88876723 C1322.93182658 1225.89295108 1320.54057167 1225.89888442 1318.14932231 1225.90638469 C1312.30349644 1225.92023476 1306.45789237 1225.9157998 1300.61206826 1225.90332443 C1293.54803056 1225.88933454 1286.48406967 1225.89901663 1279.42003239 1225.90918108 C1266.22252998 1225.92749908 1253.02508944 1225.92702129 1239.82758156 1225.91605757 C1226.46630429 1225.90502566 1213.10506767 1225.9027527 1199.74378792 1225.91100691 C1198.47464565 1225.91178195 1198.47464565 1225.91178195 1197.17986414 1225.91257264 C1193.73345878 1225.91470589 1190.28705347 1225.91690074 1186.84064821 1225.91917374 C1154.79077428 1225.9402965 1122.7409276 1225.9417812 1090.69104973 1225.93058394 C1089.74264715 1225.93025276 1088.79424457 1225.92992157 1087.81710252 1225.92958036 C1086.86717073 1225.92924864 1085.91723894 1225.92891692 1084.93852133 1225.92857515 C1055.97295053 1225.91847374 1027.00739097 1225.91588088 998.04181878 1225.92066572 C996.10051648 1225.92097564 994.15921417 1225.92128427 992.21791187 1225.9215916 C984.41619643 1225.92283352 976.614481 1225.92410819 968.81276557 1225.92543066 C947.00510897 1225.9290983 925.19745234 1225.93138099 903.38979546 1225.93257521 C902.3968099 1225.93262979 901.40382433 1225.93268438 900.38074829 1225.93274061 C868.75022755 1225.93437719 837.11971073 1225.9298729 805.48919121 1225.92117689 C804.46361222 1225.9208959 803.43803323 1225.9206149 802.38137609 1225.92032539 C785.72769927 1225.91574585 769.07402254 1225.91086788 752.42034582 1225.9059647 C686.37408482 1225.88654005 620.32785625 1225.88744165 554.28159539 1225.90688704 C537.63622494 1225.91177199 520.99085448 1225.91661627 504.34548394 1225.92117689 C502.808012 1225.92159958 502.808012 1225.92159958 501.23948002 1225.92203081 C469.64127939 1225.93065834 438.04308146 1225.93431212 406.44487969 1225.93257521 C405.45262762 1225.93252087 404.46037555 1225.93246653 403.43805524 1225.93241055 C381.65443622 1225.93116052 359.87081749 1225.92862573 338.08719875 1225.9249332 C330.29254912 1225.92361669 322.49789948 1225.92236436 314.70324984 1225.92113035 C312.76422741 1225.9208208 310.82520497 1225.92050588 308.88618254 1225.92018557 C279.92997448 1225.91541541 250.97377911 1225.91946878 222.01757263 1225.92958036 C221.06917005 1225.92991154 220.12076747 1225.93024272 219.14362542 1225.93058394 C218.19698019 1225.93091467 217.25033497 1225.9312454 216.27500352 1225.93158615 C184.31567129 1225.94262967 152.35637168 1225.93853901 120.3970441 1225.91746096 C116.96165851 1225.91525165 113.52627289 1225.91310482 110.09088723 1225.91100691 C108.82627448 1225.91022567 108.82627448 1225.91022567 107.53611399 1225.90942865 C94.21375239 1225.90155456 80.89143152 1225.9070155 67.56907359 1225.91808293 C54.45347207 1225.92869228 41.33793893 1225.92489862 28.22234604 1225.90602658 C21.21333243 1225.89632463 14.20445836 1225.89269283 7.19544987 1225.90765051 C0.8077537 1225.9206551 -5.57965392 1225.91496313 -11.96732942 1225.89492787 C-14.25264709 1225.89092937 -16.53798915 1225.89348324 -18.82328725 1225.90375162 C-67.01313286 1226.10475743 -113.78551623 1209.72883228 -149.08266242 1176.38540266 C-150.39142262 1175.27680579 -151.70382601 1174.17249292 -153.02016242 1173.07290266 C-171.46565141 1156.88680088 -184.81214794 1135.44431874 -195.08266242 1113.38540266 C-195.39090949 1112.72588606 -195.69915656 1112.06636946 -196.01674446 1111.38686751 C-199.94140975 1102.83902621 -202.90403083 1094.1584914 -205.33266242 1085.07290266 C-205.68385139 1083.7782408 -205.68385139 1083.7782408 -206.04213508 1082.45742415 C-211.27242316 1061.83809134 -211.51982978 1041.43874324 -211.46806509 1020.32380511 C-211.46038696 1015.82154653 -211.4702614 1011.31931836 -211.47779508 1006.81706421 C-211.48858501 998.9425411 -211.48832938 991.06807979 -211.4806536 983.19355391 C-211.46927032 971.4834831 -211.47512595 959.77346409 -211.48427853 948.06339359 C-211.50005082 927.144641 -211.49871648 906.22591594 -211.49004179 885.30716075 C-211.48248756 866.99990447 -211.48052854 848.69265827 -211.48410972 830.38540076 C-211.48433888 829.169838 -211.48456803 827.95427525 -211.48480413 826.70187726 C-211.48573819 821.76718597 -211.48669339 816.83249468 -211.48768342 811.89780339 C-211.49685539 765.62947353 -211.48854811 719.36116118 -211.47239273 673.09283403 C-211.45815738 632.01106692 -211.45942963 590.92932772 -211.47377571 549.84756087 C-211.48984956 503.66398786 -211.49620396 457.48043031 -211.48693891 411.2968549 C-211.4859768 406.37097671 -211.48503828 401.44509853 -211.48410972 396.51922034 C-211.48387249 395.3063938 -211.48363526 394.09356727 -211.48339084 392.84398842 C-211.47998244 374.5516016 -211.48396176 356.25922599 -211.49154838 337.96684073 C-211.50013457 317.1609657 -211.49796375 296.35512245 -211.48170615 275.54925137 C-211.47291334 263.91360961 -211.47229903 252.27803671 -211.48364467 240.64239677 C-211.49039414 232.86030451 -211.48614497 225.07826721 -211.47313036 217.29618306 C-211.46602643 212.86894836 -211.46348578 208.44185001 -211.47434831 204.01461982 C-211.6097796 144.33413446 -194.64330915 95.41836991 -152.33266242 52.38540266 C-110.68256555 10.70729254 -56.62424487 -0.12729758 0 0 Z " fill="#B62025" transform="translate(211.08266242407262,-0.38540266267955303)"/>
<path d="M0 0 C47.19 0 94.38 0 143 0 C146.01598354 10.25434403 148.9317119 20.3843298 151.4375 30.75 C153.47547069 39.04840353 155.59171869 47.30118314 158 55.5 C160.76325011 64.90728207 163.12290953 74.39815821 165.46484375 83.91796875 C167.17086385 90.80998799 169.00461125 97.62457179 171.08618164 104.41113281 C173.50340117 112.43123757 175.41323917 120.58329253 177.4140625 128.71484375 C178.97582716 135.02301492 180.59448157 141.28700909 182.5 147.5 C185.5273829 157.38362648 187.89843875 167.43720866 190.37890625 177.46875 C191.9820168 183.95069386 193.66157522 190.40559314 195.41503906 196.84863281 C196.74240737 201.7304231 198.05779669 206.61545945 199.375 211.5 C199.67647949 212.61640869 199.97795898 213.73281738 200.28857422 214.88305664 C202.27763185 222.2652959 204.21470046 229.659545 206.125 237.0625 C207.78132095 243.47635007 209.51236629 249.84925864 211.4375 256.1875 C214.46003006 266.16147773 216.86381952 276.29547995 219.36328125 286.41015625 C221.14935038 293.63306475 223.03764447 300.82286634 225 308 C225.2990625 309.10085938 225.598125 310.20171875 225.90625 311.3359375 C226.60143482 313.89138541 227.29913883 316.44610437 228 319 C230.29063083 314.02290694 231.78717158 309.28289002 232.9375 303.9375 C234.11135522 298.72142658 235.3598084 293.5677753 236.875 288.4375 C238.76507504 282.00082712 240.39295078 275.51269946 242 269 C243.83813193 261.55585021 245.77367601 254.16950156 247.9375 246.8125 C249.39912277 241.56785361 250.69479782 236.28542268 252 231 C253.83827798 223.55588423 255.77367411 216.16950801 257.9375 208.8125 C259.39912277 203.56785361 260.69479782 198.28542268 262 193 C263.83827798 185.55588423 265.77367411 178.16950801 267.9375 170.8125 C269.39912277 165.56785361 270.69479782 160.28542268 272 155 C273.83827798 147.55588423 275.77367411 140.16950801 277.9375 132.8125 C279.39912277 127.56785361 280.69479782 122.28542268 282 117 C283.83827798 109.55588423 285.77367411 102.16950801 287.9375 94.8125 C289.39912277 89.56785361 290.69479782 84.28542268 292 79 C293.83827798 71.55588423 295.77367411 64.16950801 297.9375 56.8125 C299.39912366 51.56785039 300.69471249 46.28540413 302 41 C304.15733339 32.2693107 306.48484083 23.63537981 309 15 C310.32 10.05 311.64 5.1 313 0 C360.52 0 408.04 0 457 0 C457 156.09 457 312.18 457 473 C427.63 473 398.26 473 368 473 C367.505 291.335 367.505 291.335 367 106 C360.4 132.73 353.8 159.46 347 187 C345.35 192.94 343.7 198.88 342 205 C341.12422801 208.38706986 340.25978245 211.76981237 339.43212891 215.16796875 C339.2183107 216.03591568 339.00449249 216.90386261 338.78419495 217.79811096 C338.33021742 219.64233909 337.87742981 221.4868605 337.42580032 223.33166504 C336.70358872 226.28132979 335.97784385 229.23010744 335.25131226 232.17871094 C333.44746862 239.50242805 331.64919967 246.82751118 329.85113525 254.15264893 C328.08358744 261.35254152 326.31352743 268.55180885 324.5390625 275.75 C324.29237572 276.75086136 324.04568893 277.75172272 323.79152679 278.78291321 C320.86863516 290.62702765 317.86337218 302.43455112 314.62747192 314.1973877 C311.90782925 324.1632466 309.43715524 334.18837651 306.96875 344.21875 C306.7470451 345.11948242 306.52534019 346.02021484 306.29691696 346.94824219 C304.69407494 353.46454698 303.09650625 359.98214049 301.5 366.5 C299.68057472 373.92794361 297.85906016 381.35536468 296.03125 388.78125 C295.81123447 389.67526016 295.59121895 390.56927032 295.36453629 391.4903717 C292.23290112 404.1975046 288.95123791 416.85086169 285.49707031 429.47460938 C283.22944116 437.78022098 281.17740681 446.1391428 279.125 454.5 C278.54190639 456.87298793 277.95796246 459.2457481 277.37106323 461.61779785 C277.01377843 463.06182474 276.65860838 464.50637713 276.30593872 465.95153809 C275.11266996 470.77466008 275.11266996 470.77466008 274 473 C243.64 473 213.28 473 182 473 C179.94503673 466.83511019 178.10455071 460.81942646 176.57080078 454.53198242 C176.34716732 453.62814158 176.12353386 452.72430075 175.89312363 451.79307079 C175.1570828 448.81470635 174.42619807 445.83510207 173.6953125 442.85546875 C173.17441874 440.74362023 172.65318157 438.63185638 172.13162231 436.52017212 C171.02894709 432.05297954 169.92844677 427.58525931 168.82971191 423.11709595 C167.12315656 416.17759585 165.41128524 409.23941472 163.69824219 402.30151367 C162.00727436 395.4522655 160.31640922 388.60299263 158.62719727 381.75331116 C154.77654053 366.13909765 150.91988519 350.52645892 147.02581787 334.92300415 C146.51818761 332.88775064 146.0115166 330.85225757 145.50592041 328.8164978 C144.824027 326.07107796 144.13904318 323.32644789 143.453125 320.58203125 C143.27395538 319.85819244 143.09478577 319.13435364 142.91018677 318.38858032 C141.79896791 313.96252648 140.60057303 309.56637495 139.36031628 305.17466068 C135.90741685 292.91945955 132.85417421 280.57259695 129.80859375 268.2109375 C129.21696304 265.81810613 128.62508413 263.42533613 128.03297424 261.03262329 C126.47855544 254.74875869 124.9270934 248.46416809 123.37640381 242.17938232 C121.84029544 235.95516267 120.30204006 229.73147395 118.76367188 223.5078125 C118.31145736 221.67830236 118.31145736 221.67830236 117.85010719 219.81183243 C110.03262888 188.17819516 110.03262888 188.17819516 102.17643929 156.55415726 C101.67642828 154.54598121 101.17721879 152.53760539 100.67892265 150.52900314 C98.15808815 140.3711013 95.59530714 130.23729182 92.67800236 120.18465614 C91.13627843 114.79225156 90.11154978 109.55774889 89 104 C88.67 225.77 88.34 347.54 88 473 C58.96 473 29.92 473 0 473 C0 316.91 0 160.82 0 0 Z " fill="#FEFEFE" transform="translate(1104,441)"/>
<path d="M0 0 C282.46036585 0 282.46036585 0 334 49 C334.68320313 49.61875 335.36640625 50.2375 336.0703125 50.875 C347.84331833 61.90911425 356.91805816 76.14067707 365 90 C365.52303711 90.88341064 365.52303711 90.88341064 366.05664062 91.78466797 C381.75898955 118.57323552 389.5728898 149.52984246 394 180 C394.16516113 181.10375977 394.33032227 182.20751953 394.50048828 183.34472656 C399.72527041 220.07489087 399.96770093 260.37147342 394 297 C393.83371094 298.07443359 393.66742187 299.14886719 393.49609375 300.25585938 C387.70042377 336.76858025 374.53271831 371.84609936 353 402 C352.58943359 402.57572754 352.17886719 403.15145508 351.75585938 403.74462891 C324.59415555 441.24702864 283.97439003 462.02985493 239 470 C159.81435829 478.79840463 79.67294257 473 0 473 C0 316.91 0 160.82 0 0 Z M96 80 C96 183.29 96 286.58 96 393 C184.7065009 399.7774195 184.7065009 399.7774195 265.9765625 366.1796875 C292.16156017 338.55989544 296.26215145 293.17087594 297.5625 257.125 C297.6042334 255.97515625 297.6459668 254.8253125 297.68896484 253.640625 C297.96282789 245.7533694 298.18540502 237.8918049 298 230 C297.98211426 229.12037598 297.96422852 228.24075195 297.94580078 227.33447266 C297.00114798 184.93542098 292.73340725 139.90120943 262.0625 107.6875 C235.95686197 82.91013318 200.1881837 81.18308838 166.17041016 80.49731445 C163.35172246 80.43958343 160.53332555 80.37358143 157.71484375 80.30664062 C137.13424418 79.87183923 116.6003283 80 96 80 Z " fill="#050708" transform="translate(1770,476)"/>
<path d="M0 0 C1.41431808 0.00515121 1.41431808 0.00515121 2.85720825 0.01040649 C16.89640151 0.07025011 30.82937589 0.26099077 44.75 2.25 C45.82636719 2.40065918 46.90273438 2.55131836 48.01171875 2.70654297 C87.91419298 8.52099925 127.96521257 23.58279874 153.5390625 56.265625 C165.07504653 71.83716529 174.37413273 88.1924846 178.75 107.25 C179.01055176 108.31637695 179.01055176 108.31637695 179.27636719 109.40429688 C179.85102692 111.76511537 180.39820306 114.13086782 180.9375 116.5 C181.10483643 117.20125 181.27217285 117.9025 181.44458008 118.625 C183.25399933 127.0459383 183.38001691 135.67105342 183.75 144.25 C175.54614258 144.60668945 167.34228516 144.96337891 159.13842773 145.32006836 C157.12447404 145.40763156 155.11052243 145.49524262 153.09657288 145.582901 C151.05967328 145.67136577 149.02275693 145.75944537 146.98582458 145.84715271 C141.86191911 146.06826446 136.73846724 146.29587255 131.61547852 146.53735352 C121.00417833 147.03158613 110.4373633 147.39379678 99.8125 147.3125 C98.03649414 147.30573242 98.03649414 147.30573242 96.22460938 147.29882812 C93.39967677 147.28739115 90.57487292 147.2712102 87.75 147.25 C87.61013672 146.66734375 87.47027344 146.0846875 87.32617188 145.484375 C82.34107478 125.0951676 75.9335239 104.78191936 57.35546875 92.7421875 C52.95551132 90.22227185 48.45328111 88.13690327 43.75 86.25 C43.05777344 85.96382812 42.36554688 85.67765625 41.65234375 85.3828125 C39.37357763 84.53101938 37.10267517 83.87152762 34.75 83.25 C33.70070313 82.97027344 32.65140625 82.69054687 31.5703125 82.40234375 C11.45158509 77.97951513 -13.31108183 77.93295515 -33.25 83.25 C-34.35504883 83.54003906 -34.35504883 83.54003906 -35.48242188 83.8359375 C-50.54408506 87.95406313 -66.15898943 94.43896691 -74.51171875 108.3515625 C-78.93127187 116.63240941 -79.59534351 126.074387 -77.6015625 135.2265625 C-73.05308631 149.02749453 -63.3851288 156.22075187 -50.85839844 162.62548828 C-43.49947576 166.30955966 -35.89481677 169.07642718 -28.078125 171.6171875 C-27.37701851 171.84839169 -26.67591202 172.07959587 -25.95355988 172.31780624 C-9.90989105 177.59382682 6.38695615 181.77467555 22.77490234 185.8248291 C78.17721954 199.52343803 78.17721954 199.52343803 103.375 209.6875 C104.52194336 210.14648682 105.66888672 210.60547363 106.85058594 211.07836914 C123.36182456 217.81309473 137.99468261 225.87005351 151.75 237.25 C152.30268555 237.70487793 152.85537109 238.15975586 153.42480469 238.62841797 C173.68008273 255.56143446 185.58799352 277.61493756 192.4375 302.8125 C192.64028564 303.5554834 192.84307129 304.2984668 193.05200195 305.06396484 C196.23605726 317.32955744 197.1943449 329.50402542 197.1875 342.125 C197.18790283 342.8911261 197.18830566 343.6572522 197.1887207 344.44659424 C197.08813795 377.8149226 185.28173208 409.68953188 163.75 435.25 C162.97140625 436.19230469 162.1928125 437.13460938 161.390625 438.10546875 C134.25318816 469.54410065 91.6204542 483.15798797 51.75 488.25 C50.84636719 488.36859375 49.94273437 488.4871875 49.01171875 488.609375 C34.55703198 490.40818046 20.04392539 490.45307871 5.5 490.5 C4.57327484 490.50535767 3.64654968 490.51071533 2.69174194 490.51623535 C-14.61915527 490.59210404 -31.71083725 489.57808005 -48.6875 486 C-49.73043213 485.78384033 -50.77336426 485.56768066 -51.84790039 485.3449707 C-95.77877157 475.98626381 -133.44719633 455.1820351 -158.63256836 417.09838867 C-166.0049523 405.59443739 -171.6305972 393.08815101 -176.25 380.25 C-176.68143311 379.05576416 -176.68143311 379.05576416 -177.12158203 377.83740234 C-182.86621685 361.64127798 -187.46400959 344.55021592 -187.25 327.25 C-156.64254454 323.60345695 -125.95702756 320.90551167 -95.25 318.25 C-93.80580363 322.51328557 -92.5895755 326.75714032 -91.5 331.125 C-84.75043713 357.07612911 -72.55128908 380.96546032 -48.91015625 395.1796875 C-20.81713919 411.38348428 16.94688444 412.31591621 47.75 404.25 C61.87559996 400.41675685 73.40637024 393.54112402 83.75 383.25 C84.81541016 382.23679687 84.81541016 382.23679687 85.90234375 381.203125 C96.88706004 369.98648572 100.05298815 356.48194871 100.06469727 341.27050781 C99.87905 328.55861366 95.67133923 320.09327901 86.671875 311.1953125 C75.54373775 301.46765511 60.71504702 296.37011282 46.75 292.25 C45.98574707 292.02054688 45.22149414 291.79109375 44.43408203 291.5546875 C26.82643016 286.31205658 8.96646827 281.99549515 -8.86694336 277.60131836 C-25.98452015 273.376522 -42.91016517 268.87433979 -59.625 263.25 C-60.87410156 262.8375 -62.12320313 262.425 -63.41015625 262 C-88.63709798 253.56465898 -112.90429669 241.78285863 -132.25 223.25 C-132.98605469 222.57710937 -133.72210938 221.90421875 -134.48046875 221.2109375 C-154.7669159 202.03755206 -169.58898758 172.3986538 -170.60868835 144.29627991 C-170.67617215 140.84211979 -170.6650431 137.39192429 -170.625 133.9375 C-170.62001495 133.21222107 -170.61502991 132.48694214 -170.6098938 131.73968506 C-170.32171976 95.95782887 -156.3836386 66.47227323 -131.2109375 41.203125 C-109.46395625 20.84078301 -81.12630317 10.79979554 -52.5625 4.625 C-51.63179687 4.41866943 -50.70109375 4.21233887 -49.7421875 3.99975586 C-33.27776225 0.56082443 -16.7679188 -0.10048901 0 0 Z " fill="#FEFEFE" transform="translate(641.25,432.75)"/>
<path d="M0 0 C16.59243265 14.61846778 28.13210728 32.08993604 37.41796875 52.015625 C38.11019531 53.48902344 38.11019531 53.48902344 38.81640625 54.9921875 C54.80127974 91.13632819 55.41796875 130.14863313 55.41796875 169.015625 C-19.49203125 169.015625 -94.40203125 169.015625 -171.58203125 169.015625 C-171.25203125 170.005625 -170.92203125 170.995625 -170.58203125 172.015625 C-170.26477071 174.82770708 -169.97791632 177.63667029 -169.70703125 180.453125 C-167.29728704 203.3422818 -159.11663442 223.87678043 -141.17578125 239.05078125 C-124.68983887 251.22789778 -105.35013566 255.20534216 -85.26171875 252.58203125 C-72.46881062 249.83582031 -59.88900412 243.45480572 -52.49658203 232.39111328 C-47.06333333 223.74961457 -42.78763933 214.69666019 -39.58203125 205.015625 C-27.44164451 206.25743843 -15.49175674 208.15909575 -3.49017334 210.35787964 C1.45384462 211.26357907 6.40071957 212.15337125 11.34765625 213.04296875 C12.79203568 213.3031353 12.79203568 213.3031353 14.26559448 213.56855774 C23.0090584 215.13645984 31.7690871 216.57298298 40.55078125 217.91162109 C41.43765625 218.04777832 42.32453125 218.18393555 43.23828125 218.32421875 C44.35614014 218.49135376 44.35614014 218.49135376 45.49658203 218.66186523 C47.41796875 219.015625 47.41796875 219.015625 50.41796875 220.015625 C45.93106472 248.35972606 22.66769955 276.92356498 0.29296875 293.703125 C-18.15260234 307.00646954 -38.53610132 314.33029903 -60.58203125 319.015625 C-61.52820313 319.23089844 -62.474375 319.44617188 -63.44921875 319.66796875 C-105.45404236 328.86071769 -157.97144666 321.56016353 -194.20703125 298.453125 C-199.93913791 294.65146942 -205.33905063 290.46255097 -210.58203125 286.015625 C-211.28972656 285.43039062 -211.99742187 284.84515625 -212.7265625 284.2421875 C-217.50796755 280.20130598 -221.66312685 275.89473904 -225.58203125 271.015625 C-226.80019531 269.51322266 -226.80019531 269.51322266 -228.04296875 267.98046875 C-242.56237506 249.48245393 -250.9847113 228.40713123 -257.58203125 206.015625 C-257.86336914 205.07178955 -258.14470703 204.1279541 -258.43457031 203.15551758 C-260.23489022 196.8793715 -261.38568119 190.67592351 -262.20703125 184.203125 C-262.32820313 183.32076172 -262.449375 182.43839844 -262.57421875 181.52929688 C-268.78140463 134.53685161 -264.59836018 84.1092858 -241.58203125 42.015625 C-241.00582031 40.94828125 -240.42960937 39.8809375 -239.8359375 38.78125 C-220.96677488 5.13923259 -188.68337777 -20.44666725 -151.58203125 -30.984375 C-99.98356855 -44.13289911 -41.18058827 -34.99714322 0 0 Z " fill="#FEFEFE" transform="translate(338.58203125,599.984375)"/>
<path d="M0 0 C32.34 0 64.68 0 98 0 C113.82289535 46.33847925 113.82289535 46.33847925 119.0920105 62.25772095 C124.29451132 77.97013721 129.56564723 93.65720969 134.9375 109.3125 C140.58145149 125.76105058 146.09735495 142.25029944 151.5809021 158.75296021 C157.38653071 176.21989881 163.28364292 193.65351817 169.25927734 211.06298828 C170.26678764 214.00057099 171.27136067 216.93914987 172.2746582 219.87817383 C172.76594851 221.31533439 173.25866765 222.75200717 173.75268555 224.18823242 C174.4697443 226.27505424 175.18088894 228.36380325 175.890625 230.453125 C176.29829102 231.64583008 176.70595703 232.83853516 177.12597656 234.06738281 C178 237 178 237 178 240 C178.66 240 179.32 240 180 240 C180.23960449 238.79601562 180.47920898 237.59203125 180.72607422 236.3515625 C182.16795518 229.88690688 184.29494981 223.65356044 186.3828125 217.375 C186.82958604 216.02060008 187.27596056 214.66606849 187.7219696 213.31141663 C188.68066707 210.40233859 189.64206523 207.49417276 190.60562134 204.58670044 C192.15503611 199.91134824 193.69843112 195.23402206 195.2409668 190.55639648 C197.13506102 184.81397268 199.03056296 179.07201737 200.92788982 173.33066082 C204.27772677 163.19357273 207.61695145 153.05303242 210.94921875 142.91015625 C211.19104197 142.17412045 211.43286518 141.43808464 211.68201637 140.67974472 C212.6593949 137.70481561 213.63671395 134.72986697 214.6139307 131.75488472 C217.32421536 123.50398691 220.03697228 115.25390243 222.75 107.00390625 C222.99850393 106.24821476 223.24700787 105.49252327 223.50304222 104.71393204 C229.81348668 85.52429739 236.12685648 66.33562523 242.4413414 47.14731979 C243.30612246 44.51938038 244.17084503 41.89142172 245.03555298 39.26345825 C246.39188255 35.14143887 247.74839708 31.0194804 249.10505676 26.89756966 C249.60277466 25.38528366 250.1004368 23.87297932 250.59803772 22.36065483 C251.28304962 20.2787941 251.96828017 18.19700546 252.65356445 16.11523438 C253.22781914 14.37034729 253.22781914 14.37034729 253.81367493 12.59020996 C255.20127547 8.39087421 256.60143445 4.19569666 258 0 C289.35 0 320.7 0 353 0 C350.75020991 10.1240554 350.75020991 10.1240554 349.51391602 13.41918945 C349.23427002 14.17373413 348.95462402 14.92827881 348.66650391 15.70568848 C348.21476807 16.8974469 348.21476807 16.8974469 347.75390625 18.11328125 C347.43139893 18.97924927 347.1088916 19.84521729 346.77661133 20.73742676 C346.07751155 22.6128199 345.37577249 24.48723089 344.67166138 26.36074829 C343.14014711 30.43648509 341.62192417 34.51713328 340.10301208 38.59757996 C339.29825462 40.75943899 338.49287507 42.92106654 337.68690491 45.08247375 C333.25622471 56.97210602 328.90821203 68.89161147 324.5625 80.8125 C322.96146657 85.20071402 321.3597546 89.58868012 319.7578125 93.9765625 C319.3620401 95.06071442 318.9662677 96.14486633 318.5585022 97.26187134 C314.36610936 108.74244766 310.15388828 120.21571826 305.9375 131.6875 C305.38341965 133.19505356 305.38341965 133.19505356 304.81814575 134.73306274 C302.95700211 139.79658995 301.09552102 144.85999301 299.23388672 149.92333984 C296.98953761 156.02794487 294.74652387 162.13303995 292.50390625 168.23828125 C292.13245483 169.2495105 291.76100342 170.26073975 291.3782959 171.3026123 C290.25217533 174.36840015 289.12608219 177.43419806 288 180.5 C279.74242061 202.98157649 279.74242061 202.98157649 275.65061951 214.11062622 C267.24600662 236.97000518 258.86252139 259.83687459 250.51373291 282.71670532 C245.85760078 295.47490324 241.18514512 308.22692979 236.484375 320.96875 C236.25247278 321.59746506 236.02057056 322.22618011 235.78164101 322.87394714 C233.31703905 329.5556483 230.85017143 336.23650448 228.37963867 342.91601562 C227.55355364 345.15222554 226.72778494 347.38855234 225.90234375 349.625 C225.50017136 350.7144693 225.09799896 351.8039386 224.68363953 352.92642212 C222.53882658 358.75555803 220.42578969 364.59460137 218.35009766 370.44873047 C217.91033096 371.68872803 217.47056427 372.92872559 217.01747131 374.20629883 C216.18574308 376.55788135 215.35736049 378.91065136 214.53318787 381.26489258 C202.45171027 415.46180889 185.87181566 451.75659757 151.97558594 469.03173828 C144.0566202 472.79466448 135.82555659 475.51757371 127.375 477.8125 C126.66053711 478.00755127 125.94607422 478.20260254 125.20996094 478.40356445 C110.85588719 482.0369594 96.46083703 482.3990965 81.75 482.375 C80.78854065 482.37611786 79.8270813 482.37723572 78.83648682 482.37838745 C40.71320906 482.35660453 40.71320906 482.35660453 30 477 C29.46923828 474.59619141 29.46923828 474.59619141 29.0703125 471.3515625 C28.9165918 470.13460693 28.76287109 468.91765137 28.60449219 467.66381836 C28.4443038 466.31758808 28.28448288 464.97131404 28.125 463.625 C27.95534449 462.24545117 27.78508708 460.86597624 27.61425781 459.48657227 C27.15797309 455.77464514 26.71537582 452.06121383 26.27722168 448.34710693 C25.99571832 445.96374903 25.71147761 443.58072954 25.42675781 441.19775391 C24.86010179 436.44522847 24.30329744 431.69159702 23.75 426.9375 C23.66123596 426.18084045 23.57247192 425.42418091 23.48101807 424.64459229 C23.22835746 422.4809244 22.98058273 420.31675432 22.734375 418.15234375 C22.59225586 416.91476318 22.45013672 415.67718262 22.30371094 414.40209961 C22.02184113 411.24465927 21.94305132 408.16761912 22 405 C23.86011719 405.32484375 23.86011719 405.32484375 25.7578125 405.65625 C49.59508851 409.52033039 77.00040962 412.53437864 98.29296875 399.0234375 C113.13261037 387.93118013 120.53816998 369.75998941 127 353 C127.63615234 351.45505859 127.63615234 351.45505859 128.28515625 349.87890625 C129.88448041 343.43791223 127.24207557 337.35900564 124.96484375 331.38671875 C124.65514145 330.55771057 124.34543915 329.72870239 124.02635193 328.87457275 C123.00368251 326.14288348 121.97074524 323.41520478 120.9375 320.6875 C120.20798646 318.74636658 119.4789916 316.80503816 118.75048828 314.86352539 C116.51137308 308.90481772 114.25766783 302.95169938 112 297 C111.50219025 295.68696899 111.50219025 295.68696899 110.99432373 294.34741211 C107.47412172 285.06515651 103.9374531 275.78922876 100.39453125 266.515625 C95.50141276 253.7069907 90.63724607 240.88738802 85.77524948 228.0669136 C85.06206138 226.18634342 84.34879955 224.30580121 83.63552856 222.42526245 C77.17185619 205.38301931 70.72286455 188.33528465 64.28689575 171.28256226 C58.31210714 155.45315282 52.30567103 139.63589026 46.29116821 123.8215332 C39.98608158 107.24198105 33.70603232 90.65315107 27.44702148 74.05615234 C23.57904123 63.80345585 19.69171735 53.55837531 15.78515625 43.3203125 C14.90622764 41.01498248 14.02732123 38.709644 13.1484375 36.40429688 C11.45759584 31.96948431 9.76300091 27.53612995 8.06640625 23.10351562 C7.29543061 21.08208552 6.52459034 19.06060378 5.75390625 17.0390625 C5.40264175 16.12448273 5.05137726 15.20990295 4.68946838 14.26760864 C4.3634111 13.41053314 4.03735382 12.55345764 3.70141602 11.67041016 C3.41959976 10.93343903 3.13778351 10.1964679 2.84742737 9.43716431 C1.76829695 6.33363208 0.90267672 3.15936853 0 0 Z " fill="#050708" transform="translate(3053,606)"/>
<path d="M0 0 C3.70326644 0.00314451 7.40571925 -0.02032382 11.10888672 -0.0456543 C52.90614289 -0.1571271 92.87983873 6.01485882 124.36279297 35.50317383 C149.53844807 61.52394809 147.06313251 103.64539513 146.87471771 137.28628755 C146.85439195 141.41786346 146.84766201 145.5494608 146.83984375 149.68107605 C146.81599305 161.04591693 146.77206186 172.41066154 146.72738647 183.7754364 C146.68663522 194.18257362 146.65056892 204.5896756 146.63095665 214.9968769 C146.6227821 219.07770875 146.61052767 223.15842933 146.58746338 227.23920631 C146.49676725 243.46696452 146.62475243 259.62517828 147.64013672 275.82617188 C147.72073334 277.11658544 147.80132996 278.406999 147.8843689 279.736516 C149.64849443 305.26974034 157.00155413 326.67052237 166.73779297 350.31567383 C136.70779297 350.31567383 106.67779297 350.31567383 75.73779297 350.31567383 C71.23779297 339.06567383 71.23779297 339.06567383 69.59716797 333.87036133 C69.07509766 332.22680664 69.07509766 332.22680664 68.54248047 330.55004883 C68.02041016 328.8871582 68.02041016 328.8871582 67.48779297 327.19067383 C67.12427734 326.0434082 66.76076172 324.89614258 66.38623047 323.71411133 C65.50005872 320.91567422 64.61731979 318.116205 63.73779297 315.31567383 C63.0688501 315.95980225 62.39990723 316.60393066 61.71069336 317.26757812 C43.43867546 334.68827138 21.11172352 347.68195539 -3.26220703 354.31567383 C-3.95878418 354.52305176 -4.65536133 354.73042969 -5.37304688 354.9440918 C-17.57763872 358.50060151 -29.8356596 358.70700772 -42.44970703 358.75317383 C-43.25218872 358.75943787 -44.05467041 358.7657019 -44.88146973 358.77215576 C-76.69415951 358.9289846 -105.38190724 349.47748027 -128.92236328 327.64770508 C-147.96620272 308.66745108 -156.40128962 283.19999705 -156.63720703 256.75317383 C-156.44675873 230.04646203 -147.17971817 205.95860529 -128.82470703 186.50317383 C-100.78075666 160.14315581 -58.63512979 153.51801411 -22.38720703 146.31567383 C-7.59300477 143.36748946 7.15089346 140.32860661 21.79248047 136.68676758 C22.91274628 136.40917603 24.03301208 136.13158447 25.18722534 135.84558105 C35.55707934 133.21559285 45.66388285 129.90259637 55.73779297 126.31567383 C56.16286223 111.26507344 56.42002839 95.41264851 45.98779297 83.28051758 C34.10650013 71.99808023 15.95257032 70.7729295 0.33105469 70.86962891 C-1.76222317 70.87817389 -3.85278691 70.8491615 -5.94580078 70.81762695 C-21.18302244 70.73894325 -35.51742155 74.07523587 -47.26220703 84.31567383 C-54.23040883 92.84741207 -58.93460964 102.25505354 -63.26220703 112.31567383 C-73.05158725 111.75948245 -82.56232274 110.15061173 -92.18408203 108.37426758 C-93.78109854 108.0837361 -95.37820725 107.79371106 -96.97540283 107.50416565 C-101.13874698 106.74803832 -105.3008191 105.98512859 -109.46264648 105.22070312 C-113.72580227 104.43894086 -117.99014924 103.66373267 -122.25439453 102.88793945 C-130.59149833 101.37019109 -138.92726721 99.84526119 -147.26220703 98.31567383 C-146.80136468 96.58495637 -146.33746257 94.85505349 -145.87231445 93.12548828 C-145.61431564 92.16206009 -145.35631683 91.1986319 -145.09049988 90.20600891 C-136.35332407 59.71755803 -117.54877357 33.28404228 -89.96142578 17.41723633 C-74.72289443 9.36735472 -58.2350073 4.92277657 -41.26220703 2.31567383 C-40.13314941 2.13689697 -39.0040918 1.95812012 -37.84082031 1.77392578 C-25.24954409 0.02665077 -12.69602438 -0.02245465 0 0 Z M49.83422852 188.21435547 C49.0492952 188.4122467 48.26436188 188.61013794 47.4556427 188.81402588 C46.60386948 189.03242126 45.75209625 189.25081665 44.87451172 189.47583008 C43.5372126 189.81369537 43.5372126 189.81369537 42.17289734 190.15838623 C39.25628589 190.89541158 36.34080907 191.6368286 33.42529297 192.37817383 C20.01754221 195.77305977 6.60371223 199.08086537 -6.88720703 202.12817383 C-17.59511029 204.57662073 -28.01027163 207.35368133 -38.26220703 211.31567383 C-39.72400391 211.87641602 -39.72400391 211.87641602 -41.21533203 212.44848633 C-50.96383036 216.72466811 -58.03347103 224.49914747 -62.42236328 234.08911133 C-66.06038518 243.73409962 -65.21997934 255.02577031 -61.59033203 264.53442383 C-59.34444989 269.23756525 -56.5536045 273.28739633 -53.26220703 277.31567383 C-52.49457031 278.27086914 -52.49457031 278.27086914 -51.71142578 279.24536133 C-44.50827691 287.28857968 -33.52505526 292.58526992 -22.80688477 293.53271484 C0.45742112 294.59206192 19.77923828 288.73859561 37.73779297 273.31567383 C51.36834387 260.6437037 55.76412568 244.35894575 56.73779297 226.31567383 C56.89152603 219.58776963 56.8326 212.85718026 56.80029297 206.12817383 C56.79526753 204.29939901 56.79070647 202.47062286 56.78662109 200.6418457 C56.77569916 196.19975487 56.7584922 191.75772942 56.73779297 187.31567383 C54.12021731 187.31567383 52.33017085 187.57879802 49.83422852 188.21435547 Z " fill="#050708" transform="translate(3615.26220703125,598.684326171875)"/>
<path d="M0 0 C3.70326644 0.00314451 7.40571925 -0.02032382 11.10888672 -0.0456543 C52.90614289 -0.1571271 92.87983873 6.01485882 124.36279297 35.50317383 C149.53844807 61.52394809 147.06313251 103.64539513 146.87471771 137.28628755 C146.85439195 141.41786346 146.84766201 145.5494608 146.83984375 149.68107605 C146.81599305 161.04591693 146.77206186 172.41066154 146.72738647 183.7754364 C146.68663522 194.18257362 146.65056892 204.5896756 146.63095665 214.9968769 C146.6227821 219.07770875 146.61052767 223.15842933 146.58746338 227.23920631 C146.49676725 243.46696452 146.62475243 259.62517828 147.64013672 275.82617188 C147.72073334 277.11658544 147.80132996 278.406999 147.8843689 279.736516 C149.64849443 305.26974034 157.00155413 326.67052237 166.73779297 350.31567383 C136.70779297 350.31567383 106.67779297 350.31567383 75.73779297 350.31567383 C71.23779297 339.06567383 71.23779297 339.06567383 69.59716797 333.87036133 C69.07509766 332.22680664 69.07509766 332.22680664 68.54248047 330.55004883 C68.02041016 328.8871582 68.02041016 328.8871582 67.48779297 327.19067383 C67.12427734 326.0434082 66.76076172 324.89614258 66.38623047 323.71411133 C65.50005872 320.91567422 64.61731979 318.116205 63.73779297 315.31567383 C63.0688501 315.95980225 62.39990723 316.60393066 61.71069336 317.26757812 C43.43867546 334.68827138 21.11172352 347.68195539 -3.26220703 354.31567383 C-3.95878418 354.52305176 -4.65536133 354.73042969 -5.37304688 354.9440918 C-17.57763872 358.50060151 -29.8356596 358.70700772 -42.44970703 358.75317383 C-43.25218872 358.75943787 -44.05467041 358.7657019 -44.88146973 358.77215576 C-76.69415951 358.9289846 -105.38190724 349.47748027 -128.92236328 327.64770508 C-147.96620272 308.66745108 -156.40128962 283.19999705 -156.63720703 256.75317383 C-156.44675873 230.04646203 -147.17971817 205.95860529 -128.82470703 186.50317383 C-100.78075666 160.14315581 -58.63512979 153.51801411 -22.38720703 146.31567383 C-7.59300477 143.36748946 7.15089346 140.32860661 21.79248047 136.68676758 C22.91274628 136.40917603 24.03301208 136.13158447 25.18722534 135.84558105 C35.55707934 133.21559285 45.66388285 129.90259637 55.73779297 126.31567383 C56.16286223 111.26507344 56.42002839 95.41264851 45.98779297 83.28051758 C34.10650013 71.99808023 15.95257032 70.7729295 0.33105469 70.86962891 C-1.76222317 70.87817389 -3.85278691 70.8491615 -5.94580078 70.81762695 C-21.18302244 70.73894325 -35.51742155 74.07523587 -47.26220703 84.31567383 C-54.23040883 92.84741207 -58.93460964 102.25505354 -63.26220703 112.31567383 C-73.05158725 111.75948245 -82.56232274 110.15061173 -92.18408203 108.37426758 C-93.78109854 108.0837361 -95.37820725 107.79371106 -96.97540283 107.50416565 C-101.13874698 106.74803832 -105.3008191 105.98512859 -109.46264648 105.22070312 C-113.72580227 104.43894086 -117.99014924 103.66373267 -122.25439453 102.88793945 C-130.59149833 101.37019109 -138.92726721 99.84526119 -147.26220703 98.31567383 C-146.80136468 96.58495637 -146.33746257 94.85505349 -145.87231445 93.12548828 C-145.61431564 92.16206009 -145.35631683 91.1986319 -145.09049988 90.20600891 C-136.35332407 59.71755803 -117.54877357 33.28404228 -89.96142578 17.41723633 C-74.72289443 9.36735472 -58.2350073 4.92277657 -41.26220703 2.31567383 C-40.13314941 2.13689697 -39.0040918 1.95812012 -37.84082031 1.77392578 C-25.24954409 0.02665077 -12.69602438 -0.02245465 0 0 Z M49.83422852 188.21435547 C49.0492952 188.4122467 48.26436188 188.61013794 47.4556427 188.81402588 C46.60386948 189.03242126 45.75209625 189.25081665 44.87451172 189.47583008 C43.5372126 189.81369537 43.5372126 189.81369537 42.17289734 190.15838623 C39.25628589 190.89541158 36.34080907 191.6368286 33.42529297 192.37817383 C20.01754221 195.77305977 6.60371223 199.08086537 -6.88720703 202.12817383 C-17.59511029 204.57662073 -28.01027163 207.35368133 -38.26220703 211.31567383 C-39.72400391 211.87641602 -39.72400391 211.87641602 -41.21533203 212.44848633 C-50.96383036 216.72466811 -58.03347103 224.49914747 -62.42236328 234.08911133 C-66.06038518 243.73409962 -65.21997934 255.02577031 -61.59033203 264.53442383 C-59.34444989 269.23756525 -56.5536045 273.28739633 -53.26220703 277.31567383 C-52.49457031 278.27086914 -52.49457031 278.27086914 -51.71142578 279.24536133 C-44.50827691 287.28857968 -33.52505526 292.58526992 -22.80688477 293.53271484 C0.45742112 294.59206192 19.77923828 288.73859561 37.73779297 273.31567383 C51.36834387 260.6437037 55.76412568 244.35894575 56.73779297 226.31567383 C56.89152603 219.58776963 56.8326 212.85718026 56.80029297 206.12817383 C56.79526753 204.29939901 56.79070647 202.47062286 56.78662109 200.6418457 C56.77569916 196.19975487 56.7584922 191.75772942 56.73779297 187.31567383 C54.12021731 187.31567383 52.33017085 187.57879802 49.83422852 188.21435547 Z " fill="#050708" transform="translate(2381.26220703125,598.684326171875)"/>
<path d="M0 0 C31.68 0 63.36 0 96 0 C96 156.09 96 312.18 96 473 C64.32 473 32.64 473 0 473 C0 316.91 0 160.82 0 0 Z " fill="#FEFEFE" transform="translate(897,441)"/>
<path d="M0 0 C0.67530762 0.20399414 1.35061523 0.40798828 2.04638672 0.61816406 C11.99375608 3.69577845 21.02433432 7.72386957 30 13 C29.40809845 19.586787 27.25764238 25.39018762 24.9921875 31.57421875 C24.58847931 32.69327103 24.18477112 33.8123233 23.76882935 34.96528625 C22.47718936 38.54167542 21.17641019 42.11465595 19.875 45.6875 C18.60089874 49.20387413 17.3287053 52.72093425 16.05670166 56.23806763 C15.22624765 58.53382986 14.39499763 60.82930431 13.56292725 63.1244812 C9.96593745 73.05673248 6.46072613 83.01955126 3 93 C-1.55182947 92.21997689 -4.97443589 90.47035679 -8.9375 88.1875 C-23.63499152 80.16352218 -39.1461533 77.58141151 -55.6953125 80.6953125 C-68.2947951 84.52993764 -77.54970917 92.66502291 -84 104 C-95.85728754 127.00784934 -97.73359827 152.12772415 -99.06005859 177.56689453 C-99.10338027 178.38817911 -99.14670194 179.2094637 -99.19133639 180.05563569 C-100.08801345 197.35114307 -100.34477133 214.62459049 -100.40471697 231.94040442 C-100.4208224 236.01484265 -100.44744848 240.08921509 -100.4727478 244.16360474 C-100.51872705 251.80862087 -100.55584985 259.4536506 -100.58942068 267.09873021 C-100.63554909 277.47928911 -100.69610994 287.85976455 -100.75566864 298.24025345 C-100.8485582 314.49345953 -100.92281609 330.74669413 -101 347 C-131.36 347 -161.72 347 -193 347 C-193 233.81 -193 120.62 -193 4 C-164.95 4 -136.9 4 -108 4 C-107.67 19.18 -107.34 34.36 -107 50 C-104.69 46.37 -102.38 42.74 -100 39 C-91.19462528 26.55731738 -81.29077176 13.81936815 -68 6 C-67.23558594 5.54238281 -66.47117187 5.08476563 -65.68359375 4.61328125 C-46.55638916 -5.87989689 -20.63647039 -6.24493871 0 0 Z " fill="#050708" transform="translate(2813,602)"/>
<path d="M0 0 C30.03 0 60.06 0 91 0 C91 113.19 91 226.38 91 343 C60.97 343 30.94 343 0 343 C0 229.81 0 116.62 0 0 Z " fill="#050708" transform="translate(2914,606)"/>
<path d="M0 0 C1.8171476 -0.01429802 1.8171476 -0.01429802 3.67100525 -0.02888489 C4.98557205 -0.02797348 6.30013885 -0.02706207 7.65454102 -0.02612305 C9.01213208 -0.03000885 10.36972192 -0.03434328 11.72731018 -0.03910828 C14.57459451 -0.04657575 17.42175485 -0.04627559 20.26904297 -0.04101562 C23.91887261 -0.03522192 27.56819463 -0.05214635 31.21794033 -0.0753603 C34.02235382 -0.09008905 36.82664485 -0.09097052 39.63109016 -0.08785057 C41.63139706 -0.08861421 43.63168495 -0.10249612 45.63194275 -0.11653137 C46.84652664 -0.11030258 48.06111053 -0.10407379 49.3125 -0.09765625 C50.9189463 -0.09860039 50.9189463 -0.09860039 52.55784607 -0.0995636 C55.22094727 0.2746582 55.22094727 0.2746582 56.86397046 1.34406948 C58.8986797 4.23887704 58.63127503 7.12732984 58.59567738 10.53829956 C58.60176846 11.66153543 58.60176846 11.66153543 58.60798261 12.80746293 C58.61799216 15.33691595 58.60646528 17.86582239 58.59516907 20.39526367 C58.59790746 22.21887888 58.60195765 24.04249252 58.60721272 25.86610222 C58.61784068 30.89308939 58.60964405 35.91989982 58.59846222 40.94687939 C58.58964781 46.36207558 58.59805572 51.77724794 58.60432434 57.19244385 C58.61383053 67.80705829 58.60719659 78.42160493 58.5950614 89.03621435 C58.58146564 101.38673432 58.58307711 113.737238 58.58519473 126.08776355 C58.58838728 148.11817468 58.57670168 170.14855352 58.55712891 192.17895508 C58.53812362 213.57610067 58.53104103 234.9732079 58.53662109 256.37036133 C58.54267344 279.64752608 58.54251181 302.92467417 58.53113526 326.20183754 C58.52992792 328.68202337 58.52872193 331.16220919 58.52751732 333.64239502 C58.52691378 334.86282466 58.52631024 336.0832543 58.52568841 337.34066665 C58.52180255 345.95796832 58.52220547 354.5752638 58.52410316 363.19256592 C58.52622125 373.68830527 58.52103048 384.1840114 58.50648961 394.67974138 C58.49922612 400.03900386 58.49518519 405.39821784 58.49973297 410.75748444 C58.50379001 415.6574801 58.4986995 420.55737536 58.48610689 425.45735574 C58.48316327 427.2359056 58.48363459 429.01446484 58.48774997 430.79301238 C58.49281465 433.19913573 58.48572582 435.60491762 58.47542286 438.01101685 C58.47981934 438.71139895 58.48421583 439.41178105 58.48874554 440.13338685 C58.45898596 443.74950015 58.28961664 445.17165413 56.22094727 448.2746582 C53.64013672 448.64888 53.64013672 448.64888 50.33422852 448.64697266 C48.48220825 448.65631584 48.48220825 448.65631584 46.59277344 448.66584778 C45.23966063 448.65715995 43.88655173 448.64784199 42.53344727 448.63793945 C41.15104167 448.63742098 39.76863533 448.63793818 38.38623047 448.63945007 C35.48759977 448.6393603 32.5892469 448.62892041 29.69067383 448.61083984 C25.97132197 448.58815218 22.25237624 448.58760788 18.53297424 448.59435749 C15.67798235 448.59769572 12.82308341 448.59107021 9.96810913 448.58122826 C8.59655239 448.57737341 7.22498531 448.57622922 5.85342407 448.5778141 C3.93814787 448.5781841 2.02288518 448.56410234 0.10766602 448.54931641 C-0.98328369 448.54470901 -2.0742334 448.54010162 -3.19824219 448.53535461 C-5.77905273 448.2746582 -5.77905273 448.2746582 -7.77905273 446.2746582 C-7.97594297 443.8454888 -8.04684192 441.53036034 -8.03073502 439.10003662 C-8.0336419 438.34869021 -8.03654878 437.5973438 -8.03954375 436.82322931 C-8.04690308 434.27929031 -8.03987301 431.73558805 -8.03302002 429.19165039 C-8.03532211 427.35993704 -8.03849693 425.52822461 -8.04247451 423.69651413 C-8.05086573 418.64257041 -8.04667772 413.58870169 -8.04050207 408.53475761 C-8.03599618 403.09229891 -8.04295204 397.64985355 -8.04846191 392.20739746 C-8.05737757 381.53751715 -8.05542427 370.8676649 -8.04963663 360.19778347 C-8.04512866 351.5298432 -8.04450348 342.86191083 -8.04668427 334.19396973 C-8.04699073 332.96255776 -8.0472972 331.7311458 -8.04761295 330.46241832 C-8.04825237 327.96120484 -8.0489008 325.45999137 -8.04955813 322.9587779 C-8.05510487 300.14839357 -8.0493426 277.33802278 -8.03887294 254.527641 C-8.02938121 233.68939893 -8.03023044 212.85118131 -8.03979492 192.01293945 C-8.0504963 168.61933165 -8.05471841 145.22573662 -8.04857039 121.83212662 C-8.04793326 119.33986664 -8.04730452 116.84760666 -8.04668427 114.35534668 C-8.04637571 113.12895312 -8.04606716 111.90255956 -8.04574926 110.63900256 C-8.04401893 101.97665756 -8.04694468 93.3143212 -8.05164337 84.65197754 C-8.0572397 74.10238971 -8.05576215 63.55283166 -8.04508188 53.00324726 C-8.03980829 47.61576001 -8.03779697 42.2283225 -8.04438019 36.84083557 C-8.05030705 31.9161836 -8.04711898 26.99162781 -8.03642508 22.06698465 C-8.0341771 20.27832717 -8.03535829 18.48966168 -8.04017666 16.70100927 C-8.04619289 14.28364792 -8.04008747 11.86662307 -8.03073502 9.44927979 C-8.03541735 8.74277613 -8.04009968 8.03627248 -8.0449239 7.30835962 C-7.99404638 0.8009283 -6.21438341 0.02675475 0 0 Z " fill="#FEFDFD" transform="translate(324.779052734375,40.725341796875)"/>
<path d="M0 0 C1.8171476 -0.01429802 1.8171476 -0.01429802 3.67100525 -0.02888489 C4.98557205 -0.02797348 6.30013885 -0.02706207 7.65454102 -0.02612305 C9.01213208 -0.03000885 10.36972192 -0.03434328 11.72731018 -0.03910828 C14.57459451 -0.04657575 17.42175485 -0.04627559 20.26904297 -0.04101562 C23.91887261 -0.03522192 27.56819463 -0.05214635 31.21794033 -0.0753603 C34.02235382 -0.09008905 36.82664485 -0.09097052 39.63109016 -0.08785057 C41.63139706 -0.08861421 43.63168495 -0.10249612 45.63194275 -0.11653137 C46.84652664 -0.11030258 48.06111053 -0.10407379 49.3125 -0.09765625 C50.9189463 -0.09860039 50.9189463 -0.09860039 52.55784607 -0.0995636 C55.22094727 0.2746582 55.22094727 0.2746582 56.86397046 1.40636438 C58.8394103 4.12616182 58.59583778 6.20021734 58.59567738 9.54158115 C58.60176846 10.50318254 58.60176846 10.50318254 58.60798261 11.48421022 C58.61798287 13.64712675 58.60647088 15.80940263 58.59516907 17.9723053 C58.59790779 19.53264638 58.60195825 21.09298562 58.60721272 22.65332025 C58.61783587 26.95254777 58.60964722 31.25156848 58.59846222 35.55078709 C58.58964485 40.18272709 58.59805655 44.8146393 58.60432434 49.44657898 C58.61382858 58.52481059 58.60719843 67.60296291 58.5950614 76.68118865 C58.58146395 87.2438199 58.58307724 97.80643209 58.58519473 108.36906987 C58.58838695 127.20944181 58.57670324 146.04977598 58.55712891 164.89013672 C58.53812105 183.18995311 58.53104178 201.48972523 58.53662109 219.78955078 C58.54267278 239.69771928 58.54251324 259.60586829 58.53113526 279.51403517 C58.52992792 281.63499701 58.52872193 283.75595885 58.52751732 285.8769207 C58.52691378 286.92058799 58.52631024 287.96425529 58.52568841 289.03954886 C58.52180198 296.40997982 58.52220568 303.78040355 58.52410316 311.15083504 C58.52622074 320.12669868 58.52103433 329.10252345 58.50648961 338.07837612 C58.49922384 342.66184014 58.4951871 347.24524743 58.49973297 351.82871628 C58.50378767 356.01872059 58.49870635 360.20860741 58.48610689 364.39859384 C58.48316136 365.92006126 58.48363732 367.44153964 58.48774997 368.96300436 C58.492808 371.01985959 58.48451855 373.07673505 58.47542286 375.13357639 C58.47455608 376.27946501 58.4736893 377.42535363 58.47279626 378.60596615 C58.22094727 381.2746582 58.22094727 381.2746582 56.22094727 383.2746582 C53.64013672 383.52862549 53.64013672 383.52862549 50.33422852 383.53344727 C49.09954834 383.53975159 47.86486816 383.54605591 46.59277344 383.55255127 C45.23966327 383.54897159 43.8865544 383.54486965 42.53344727 383.5402832 C41.15104097 383.54162995 39.76863514 383.54357056 38.38623047 383.54608154 C35.48766576 383.54903238 32.58922423 383.54473656 29.69067383 383.53540039 C25.97134089 383.52400575 22.25229658 383.53056545 18.53297424 383.54254532 C15.677997 383.54976508 12.82308842 383.54747548 9.96810913 383.54228973 C8.5965471 383.54095355 7.22497888 383.54259986 5.85342407 383.54724884 C3.93817256 383.55231568 2.02289926 383.54322652 0.10766602 383.53344727 C-0.98328369 383.53185608 -2.0742334 383.53026489 -3.19824219 383.52862549 C-5.77905273 383.2746582 -5.77905273 383.2746582 -7.77905273 381.2746582 C-8.02975106 378.59840345 -8.02975106 378.59840345 -8.03073502 375.11516571 C-8.03509534 374.15276253 -8.03509534 374.15276253 -8.03954375 373.17091686 C-8.04689844 371.00028533 -8.03987525 368.82993167 -8.03302002 366.65930176 C-8.0353223 365.09570021 -8.03849725 363.53209975 -8.04247451 361.96850157 C-8.05086319 357.65565586 -8.04667887 353.34289807 -8.04050207 349.03005195 C-8.03599515 344.3851458 -8.04295255 339.74025526 -8.04846191 335.09535217 C-8.05737646 325.98959574 -8.05542476 316.88387219 -8.04963663 307.77811444 C-8.04512823 300.38067359 -8.04450367 292.98324199 -8.04668427 285.58580017 C-8.04699073 284.53478669 -8.0472972 283.4837732 -8.04761295 282.40091082 C-8.04825237 280.26610235 -8.0489008 278.13129388 -8.04955813 275.99648541 C-8.05526746 255.95688797 -8.04869409 235.91730879 -8.0379574 215.87771434 C-8.02902134 198.66578152 -8.03057322 181.45387568 -8.03979492 164.24194336 C-8.05048692 144.27628589 -8.05471809 124.31064446 -8.04857039 104.34498453 C-8.04793327 102.21782844 -8.04730452 100.09067234 -8.04668427 97.96351624 C-8.04637571 96.91678984 -8.04606716 95.87006345 -8.04574926 94.79161808 C-8.0440191 87.39915567 -8.04694431 80.00670339 -8.05164337 72.61424255 C-8.05724034 63.61090996 -8.05576081 54.60761226 -8.04508188 45.60428369 C-8.03980915 41.00664751 -8.03779552 36.4090696 -8.04438019 31.81143379 C-8.05030882 27.60844074 -8.04711604 23.40556037 -8.03642508 19.20257765 C-8.03417786 17.67636813 -8.03535664 16.15014922 -8.04017666 14.62394565 C-8.04619691 12.56054241 -8.0400835 10.49753284 -8.03073502 8.4341507 C-8.03041031 7.28468224 -8.03008561 6.13521379 -8.02975106 4.95091295 C-7.53408778 -0.34039166 -4.55918595 0.01962864 0 0 Z " fill="#FEFDFD" transform="translate(241.779052734375,105.725341796875)"/>
<path d="M0 0 C1.25477646 -0.00637985 2.50955292 -0.0127597 3.80235291 -0.01933289 C5.18276939 -0.02086145 6.56318638 -0.02197547 7.94360352 -0.02270508 C9.34985896 -0.025916 10.75611405 -0.02927995 12.16236877 -0.03279114 C15.11395034 -0.03878864 18.06550261 -0.04063041 21.01708984 -0.04003906 C24.80481022 -0.03993742 28.59234324 -0.05358917 32.38001919 -0.07081127 C35.28559741 -0.08191375 38.1911301 -0.08395881 41.09672737 -0.08342934 C42.49341541 -0.08461212 43.89010452 -0.08905054 45.28677177 -0.0967617 C47.23803178 -0.10652558 49.1893464 -0.10242867 51.140625 -0.09765625 C52.2523558 -0.09908127 53.36408661 -0.10050629 54.50950623 -0.10197449 C57.13500977 0.14526367 57.13500977 0.14526367 59.13500977 2.14526367 C59.38570809 4.3790884 59.38570809 4.3790884 59.38669205 7.22715759 C59.39190754 8.30975892 59.39712304 9.39236025 59.40249658 10.50776768 C59.39803513 11.70677173 59.39357369 12.90577578 59.38897705 14.14111328 C59.39209703 15.40731223 59.39521701 16.67351118 59.39843154 17.9780798 C59.40681637 21.50422345 59.40263766 25.03025949 59.3964591 28.55640364 C59.39195061 32.35467748 59.39891037 36.15293228 59.40441895 39.95120239 C59.4133318 47.39658189 59.41138254 54.84192116 59.40559366 62.28730226 C59.4010846 68.33605928 59.40046099 74.38480501 59.4026413 80.43356323 C59.40294776 81.29307679 59.40325423 82.15259035 59.40356998 83.03814977 C59.4042094 84.78400525 59.40485783 86.52986072 59.40551516 88.27571619 C59.411224 104.6627917 59.4046519 121.04984486 59.39391443 137.43691671 C59.38497842 151.51060866 59.3865303 165.58426763 59.39575195 179.65795898 C59.40644483 195.98471527 59.41067463 212.31145195 59.40452743 228.63821125 C59.4038903 230.37779553 59.40326156 232.11737982 59.4026413 233.85696411 C59.40217847 235.14096829 59.40217847 235.14096829 59.40170629 236.45091194 C59.3999764 242.4953454 59.40290078 248.53976646 59.4076004 254.584198 C59.41319834 261.94612206 59.41171579 269.30800345 59.40103891 276.66992259 C59.39576748 280.4291028 59.39375034 284.18821176 59.40033722 287.94739151 C59.40735661 292.01479493 59.39899933 296.08201702 59.38897705 300.14941406 C59.39343849 301.34841811 59.39789994 302.54742216 59.40249658 303.78275967 C59.39467333 305.40666166 59.39467333 305.40666166 59.38669205 307.06336975 C59.38636734 308.00323258 59.38604264 308.94309542 59.38570809 309.91143894 C59.13500977 312.14526367 59.13500977 312.14526367 57.13500977 314.14526367 C54.55419922 314.39923096 54.55419922 314.39923096 51.24829102 314.40405273 C50.01361084 314.41035706 48.77893066 314.41666138 47.50683594 314.42315674 C46.15372577 314.41957705 44.8006169 314.41547512 43.44750977 314.41088867 C42.06510347 314.41223542 40.68269764 314.41417603 39.30029297 314.41668701 C36.40172826 314.41963785 33.50328673 314.41534203 30.60473633 314.40600586 C26.88540339 314.39461122 23.16635908 314.40117092 19.44703674 314.41315079 C16.5920595 314.42037055 13.73715092 314.41808095 10.88217163 314.4128952 C9.5106096 314.41155902 8.13904138 314.41320533 6.76748657 314.41785431 C4.85223506 314.42292115 2.93696176 314.41383198 1.02172852 314.40405273 C-0.06922119 314.40246155 -1.1601709 314.40087036 -2.28417969 314.39923096 C-4.86499023 314.14526367 -4.86499023 314.14526367 -6.86499023 312.14526367 C-7.11453789 309.90387625 -7.11453789 309.90387625 -7.1138792 307.04495907 C-7.118478 305.95825765 -7.1230768 304.87155622 -7.12781495 303.75192446 C-7.12267139 302.54834734 -7.11752782 301.34477022 -7.11222839 300.10472107 C-7.11464281 298.833733 -7.11705722 297.56274493 -7.1195448 296.25324208 C-7.12598176 292.71376156 -7.11987216 289.17439475 -7.11178052 285.63492167 C-7.10522132 281.82235565 -7.11014809 278.00980272 -7.11366272 274.19723511 C-7.11871289 266.72411347 -7.11305297 259.25103597 -7.10381242 251.77791982 C-7.09344708 243.08387745 -7.09349811 234.38984472 -7.093985 225.69579733 C-7.09448602 210.18911596 -7.0853131 194.68245519 -7.07080078 179.17578125 C-7.05671013 164.11197535 -7.04963008 149.04818758 -7.05029297 133.984375 C-7.05033292 133.05651023 -7.05037288 132.12864545 -7.05041405 131.17266356 C-7.0504544 130.24643866 -7.05049476 129.32021376 -7.05053633 128.36592144 C-7.05122537 111.23998344 -7.04534107 94.11405317 -7.03638312 76.98811768 C-7.03336094 70.92067661 -7.03230287 64.85323695 -7.03185081 58.78579521 C-7.03117017 51.39750181 -7.02672633 44.00922145 -7.01751801 36.62093358 C-7.01288656 32.84771975 -7.00985944 29.07452264 -7.01111221 25.30130577 C-7.01240147 21.2204593 -7.0059861 17.13966279 -6.998703 13.05882263 C-7.0002516 11.85301479 -7.00180021 10.64720695 -7.00339574 9.40485948 C-7.00017129 8.32076581 -6.99694684 7.23667213 -6.99362469 6.11972713 C-6.99292026 5.17644682 -6.99221584 4.2331665 -6.99149007 3.26130193 C-6.73093426 -1.09717064 -3.70480856 0.0127118 0 0 Z " fill="#FEFDFD" transform="translate(155.864990234375,174.854736328125)"/>
<path d="M0 0 C1.07318481 0.00142502 2.14636963 0.00285004 3.2520752 0.00431824 C4.46673462 0.00124161 5.68139404 -0.00183502 6.93286133 -0.00500488 C8.25056519 0.00218063 9.56826904 0.00936615 10.92590332 0.01676941 C12.28588823 0.01796127 13.64587397 0.01841436 15.00585938 0.01815796 C17.85735216 0.01972311 20.70871945 0.02801492 23.56018066 0.04142761 C27.21891409 0.05841753 30.87750952 0.06224196 34.53627777 0.06148243 C37.34492312 0.06175411 40.15353818 0.06723498 42.96217346 0.07448387 C44.96859366 0.07922262 46.97502024 0.08094714 48.98144531 0.0826416 C50.80343445 0.09221138 50.80343445 0.09221138 52.66223145 0.10197449 C54.27200867 0.10769218 54.27200867 0.10769218 55.91430664 0.11352539 C58.45715332 0.24723816 58.45715332 0.24723816 60.45715332 1.24723816 C60.50381527 27.81098497 60.53911363 54.37472567 60.56077766 80.93850517 C60.57110273 93.27173607 60.58518651 105.60494155 60.60803223 117.93815613 C60.6279285 128.68421702 60.64086079 139.43025951 60.64533031 150.17633832 C60.64794408 155.86951864 60.65411299 161.56264629 60.66861343 167.25580978 C60.68213798 172.60893568 60.68638641 177.96198697 60.68336868 183.31512833 C60.68392115 185.28483739 60.687929 187.25454882 60.69556427 189.22424316 C60.70544538 191.90362204 60.7031474 194.58271539 60.69766235 197.26210022 C60.70348804 198.05002799 60.70931372 198.83795576 60.71531594 199.64976013 C60.68539574 205.01899574 60.68539574 205.01899574 58.45715332 207.24723816 C55.91430664 207.50120544 55.91430664 207.50120544 52.66223145 207.50602722 C51.44757202 207.51233154 50.2329126 207.51863586 48.98144531 207.52513123 C47.00488953 207.51905853 47.00488953 207.51905853 44.98840332 207.51286316 C43.62841726 207.51420992 42.26843167 207.51615055 40.90844727 207.5186615 C38.05696025 207.52161225 35.20559845 207.5173168 32.35412598 207.50798035 C28.69532555 207.4965857 25.03681853 207.50314545 21.37802887 207.51512527 C18.5693744 207.52234527 15.76078973 207.52005533 12.95213318 207.51486969 C10.9457073 207.51288277 8.93927872 207.51896679 6.93286133 207.52513123 C5.7182019 207.5188269 4.50354248 207.51252258 3.2520752 207.50602722 C2.17889038 207.50443604 1.10570557 207.50284485 0 207.50120544 C-2.54284668 207.24723816 -2.54284668 207.24723816 -4.54284668 205.24723816 C-4.74049803 202.56863805 -4.81208958 199.99332898 -4.79681396 197.31352234 C-4.79993395 196.48426349 -4.80305393 195.65500464 -4.80626845 194.80061674 C-4.81428207 192.00606008 -4.80791179 189.21171853 -4.80163574 186.41716003 C-4.80434411 184.4201342 -4.80790417 182.42310936 -4.81225586 180.42608643 C-4.82140045 174.99026876 -4.8178271 169.55452671 -4.81149769 164.11870766 C-4.80644838 158.44080521 -4.81112615 152.76290941 -4.81427002 147.08500671 C-4.81791279 137.54841443 -4.81310241 128.01185309 -4.80358887 118.4752655 C-4.79270373 107.43600278 -4.79622909 96.39681393 -4.80724168 85.35755301 C-4.8163057 75.89428368 -4.81760417 66.43103664 -4.81236434 56.96776438 C-4.80923976 51.30927729 -4.80884864 45.65082497 -4.81543732 39.99234009 C-4.8211973 34.67364466 -4.81723868 29.35504484 -4.8056488 24.03635979 C-4.80299498 22.07955522 -4.80377953 20.12274267 -4.80817413 18.16594124 C-4.81360266 15.50416866 -4.80682847 12.84270653 -4.79681396 10.18095398 C-4.80127541 9.3982814 -4.80573685 8.61560882 -4.81033349 7.80921888 C-4.7563566 0.46245527 -4.7563566 0.46245527 0 0 Z " fill="#FEFEFE" transform="translate(74.5428466796875,281.7527618408203)"/>
<path d="M0 0 C12.00329262 10.15424395 19.03636329 22.31833287 23.48046875 37.30078125 C23.71378906 38.07292969 23.94710937 38.84507812 24.1875 39.640625 C26.62811366 48.50760268 26.48046875 57.08004691 26.48046875 66.30078125 C-18.06953125 66.30078125 -62.61953125 66.30078125 -108.51953125 66.30078125 C-108.51953125 41.11360849 -103.490757 21.52512286 -85.51953125 3.30078125 C-62.62702505 -19.19010203 -24.7239364 -19.63065285 0 0 Z " fill="#B62125" transform="translate(277.51953125,646.69921875)"/>
<path d="M0 0 C30.03 0 60.06 0 91 0 C91 27.72 91 55.44 91 84 C60.97 84 30.94 84 0 84 C0 56.28 0 28.56 0 0 Z " fill="#050708" transform="translate(2914,476)"/>
<path d="M0 0 C0.33 0 0.66 0 1 0 C1 122.1 1 244.2 1 370 C0.67 370 0.34 370 0 370 C-0.00173625 369.24188577 -0.0034725 368.48377155 -0.00526136 367.70268416 C-0.10821914 322.80205036 -0.21631639 277.90143146 -0.33111694 233.00082628 C-0.34488704 227.61334392 -0.35861406 222.22586145 -0.37231445 216.83837891 C-0.37504276 215.76579744 -0.37777106 214.69321598 -0.38058204 213.58813205 C-0.42469488 196.2055839 -0.46531548 178.82302925 -0.50465261 161.44046971 C-0.54507322 143.61336479 -0.58923019 125.78627197 -0.63687855 107.95918489 C-0.66617769 96.95292906 -0.69253878 85.94667417 -0.71517897 74.9404026 C-0.73096867 67.39994147 -0.75037727 59.85949515 -0.77266841 52.31905046 C-0.78543415 47.96423266 -0.79656914 43.60942627 -0.80341911 39.2545948 C-0.80972022 35.27102148 -0.82054562 31.28748752 -0.8350333 27.3039358 C-0.83947561 25.85973311 -0.84222987 24.41552409 -0.84316199 22.97131488 C-0.84466763 21.01381025 -0.8528198 19.05631405 -0.8613348 17.09882736 C-0.86399284 16.00978945 -0.86665089 14.92075155 -0.86938947 13.79871249 C-0.89795928 11.08178692 -0.89795928 11.08178692 -1.56726032 8.85319829 C-2.3016648 5.70812705 -0.97847653 2.99298703 0 0 Z " fill="#C55A46" transform="translate(1471,544)"/>
</svg>
